<?xml version="1.0" standalone="no"?>
<!DOCTYPE svg PUBLIC "-//W3C//DTD SVG 20010904//EN"
 "http://www.w3.org/TR/2001/REC-SVG-20010904/DTD/svg10.dtd">
<svg version="1.0" xmlns="http://www.w3.org/2000/svg"
 width="700.000000pt" height="700.000000pt" viewBox="0 0 700.000000 700.000000"
 preserveAspectRatio="xMidYMid meet">
<metadata>
Created by potrace 1.14, written by Peter Selinger 2001-2017
</metadata>
<g transform="translate(0.000000,700.000000) scale(0.100000,-0.100000)"
fill="#000000" stroke="none">
<path d="M4012 6114 c-87 -23 -146 -70 -186 -151 -13 -26 -56 -178 -95 -338
-39 -159 -77 -312 -85 -340 -8 -27 -26 -102 -41 -165 -15 -63 -31 -126 -35
-140 -8 -22 -173 -684 -220 -880 -31 -128 -170 -683 -180 -720 -6 -19 -42
-163 -80 -320 -39 -157 -77 -310 -85 -340 -9 -30 -81 -318 -160 -640 -80 -322
-151 -607 -159 -635 -39 -135 -59 -235 -58 -287 2 -183 180 -318 360 -272 29
8 73 27 96 44 94 64 65 -38 526 1810 231 927 424 1699 429 1715 5 17 59 233
120 480 61 248 115 464 120 480 31 96 93 378 94 425 3 180 -181 320 -361 274z"/>
<path d="M1947 4940 c-70 -27 -94 -47 -447 -376 -36 -34 -78 -73 -95 -88 -48
-44 -223 -206 -295 -272 -36 -34 -78 -73 -95 -88 -323 -293 -384 -356 -409
-419 -44 -109 -17 -229 74 -327 38 -41 118 -127 315 -338 39 -42 100 -108 137
-147 37 -39 75 -80 85 -91 10 -12 64 -70 119 -130 56 -60 116 -125 134 -144
439 -476 436 -474 570 -474 62 0 84 4 129 27 185 94 217 316 70 477 -40 43
-206 222 -279 300 -19 21 -82 88 -139 149 -58 62 -112 121 -122 132 -9 11 -46
50 -81 88 -82 88 -268 288 -302 326 l-27 29 49 46 c148 137 267 247 285 263
11 9 68 61 126 116 58 54 120 110 136 125 385 354 402 371 426 435 71 190 -50
380 -252 395 -47 3 -77 0 -112 -14z"/>
<path d="M4872 4944 c-165 -51 -249 -236 -179 -394 24 -55 64 -95 341 -350 33
-30 72 -67 87 -81 15 -14 66 -61 114 -105 48 -43 106 -97 130 -119 75 -70 248
-230 297 -275 l47 -43 -19 -24 c-11 -14 -66 -75 -122 -135 -57 -60 -116 -124
-133 -142 -61 -66 -362 -391 -390 -420 -25 -27 -229 -247 -279 -301 -67 -73
-89 -121 -94 -206 -4 -66 -1 -84 20 -131 73 -160 257 -220 413 -136 30 16 88
74 290 292 61 66 124 134 140 151 17 18 73 79 125 135 52 56 111 119 130 140
30 32 148 159 254 274 25 27 141 151 276 296 95 101 120 228 68 340 -23 52
-84 115 -283 296 -80 72 -246 226 -311 287 -40 38 -81 76 -92 85 -16 14 -94
86 -273 252 -15 14 -71 66 -125 115 -53 50 -113 105 -133 123 -81 76 -202 107
-299 76z"/>
</g>
</svg>
